<svg xmlns="http://www.w3.org/2000/svg" version="1.1" xmlns:xlink="http://www.w3.org/1999/xlink" xmlns:svgjs="http://svgjs.dev/svgjs" width="1500" height="409" viewBox="0 0 1500 409"><g transform="matrix(1,0,0,1,-0.9090909090909918,0.12799906090239688)"><svg viewBox="0 0 396 108" data-background-color="#ffffff" preserveAspectRatio="xMidYMid meet" height="409" width="1500" xmlns="http://www.w3.org/2000/svg" xmlns:xlink="http://www.w3.org/1999/xlink"><g id="tight-bounds" transform="matrix(1,0,0,1,0.2400000000000091,-0.033799263025571236)"><svg viewBox="0 0 395.52 108.06759852605117" height="108.06759852605117" width="395.52"><g><svg viewBox="0 0 395.52 108.06759852605117" height="108.06759852605117" width="395.52"><g><svg viewBox="0 0 395.52 108.06759852605117" height="108.06759852605117" width="395.52"><g id="textblocktransform"><svg viewBox="0 0 395.52 108.06759852605117" height="108.06759852605117" width="395.52" id="textblock"><g><svg viewBox="0 0 395.52 74.33639143730886" height="74.33639143730886" width="395.52"><g transform="matrix(1,0,0,1,0,0)"><svg width="395.52" viewBox="1.61 -35.4 191.58999999999997 36.01" height="74.33639143730886" data-palette-color="#1c1c1c"><path d="M28.3-9.91L28.3-9.91Q28.3-6.88 27.08-4.94 25.85-3 23.91-1.92 21.97-0.83 19.78-0.42 17.58 0 15.6 0L15.6 0 1.61 0 1.61-2.15 4.25-2.34Q4.79-2.39 5.04-2.73 5.3-3.08 5.3-3.44L5.3-3.44 5.3-30.1Q5.3-30.47 5.04-30.82 4.79-31.18 4.25-31.2L4.25-31.2 1.61-31.4 1.61-33.54 14.99-33.54Q20.97-33.54 23.61-31.4 26.25-29.25 26.25-25.49L26.25-25.49Q26.25-23 25.06-21.44 23.88-19.87 22.2-19.03 20.53-18.19 19.04-17.8L19.04-17.8Q21.29-17.8 23.41-17.05 25.54-16.31 26.92-14.59 28.3-12.87 28.3-9.91ZM20.85-25.15L20.85-25.15Q20.85-28.08 18.93-29.66 17.02-31.25 13.16-31.25L13.16-31.25Q12.38-31.25 11.47-31.18 10.57-31.1 10.3-31.1L10.3-31.1 10.3-18.46Q10.3-18.46 11-18.43 11.69-18.41 12.11-18.41L12.11-18.41Q16.99-18.41 18.92-20.17 20.85-21.92 20.85-25.15ZM22.85-9.5L22.85-9.5Q22.85-12.92 20.81-14.5 18.77-16.09 14.79-16.09L14.79-16.09Q13.99-16.09 12.99-16.02 11.99-15.94 11.22-15.87 10.45-15.8 10.3-15.8L10.3-15.8 10.3-2.59Q10.3-2.59 10.88-2.55 11.45-2.51 12.19-2.48 12.94-2.44 13.4-2.44L13.4-2.44Q18.65-2.44 20.75-4.2 22.85-5.96 22.85-9.5ZM41.14-32.35L41.14-32.35Q41.14-31.08 40.26-30.16 39.38-29.25 38.11-29.25L38.11-29.25Q36.84-29.25 35.92-30.16 35.01-31.08 35.01-32.35L35.01-32.35Q35.01-33.64 35.92-34.52 36.84-35.4 38.11-35.4L38.11-35.4Q39.38-35.4 40.26-34.52 41.14-33.64 41.14-32.35ZM43.7-1.95L43.7 0 31.96 0 31.96-1.95 34.4-2.1Q35.45-2.17 35.45-3.2L35.45-3.2 35.45-21.04 32-21.04 32-22.8 38.11-24.71 40.09-24.71 40.09-3.2Q40.09-2.73 40.39-2.44 40.7-2.15 41.14-2.1L41.14-2.1 43.7-1.95ZM62.06-3.05L62.06-3.05 62.06-1.05Q62.06-1.05 61.12-0.63 60.18-0.22 58.65 0.2 57.12 0.61 55.32 0.61L55.32 0.61Q52.51 0.61 51.23-0.72 49.95-2.05 49.95-5L49.95-5 49.95-21.61 46.75-21.61 46.75-23.24 50.17-24.85 52.41-30.15 54.61-30.15 54.61-24.1 61.66-24.1 61.66-21.61 54.61-21.61 54.61-7.64Q54.61-4.66 55.61-3.43 56.61-2.2 58.61-2.2L58.61-2.2Q60.08-2.2 61.07-2.62 62.06-3.05 62.06-3.05ZM80.58-7.25L80.58-7.25Q80.58-3.56 78.04-1.48 75.51 0.61 71.04 0.61L71.04 0.61Q68.74 0.61 66.8 0.13 64.86-0.34 64.1-0.66L64.1-0.66 64.1-7.3 66.64-7.3 67.25-3.05Q68.01-2.56 69.12-2.11 70.23-1.66 71.7-1.66L71.7-1.66Q73.85-1.66 75.02-2.86 76.19-4.05 76.19-5.54L76.19-5.54Q76.19-7.52 74.77-8.53 73.36-9.55 70.74-10.79L70.74-10.79 70.09-11.11Q67.35-12.4 65.9-13.81 64.45-15.21 64.45-17.46L64.45-17.46Q64.45-20.8 66.79-22.75 69.13-24.71 73.45-24.71L73.45-24.71Q75.65-24.71 77.37-24.3 79.09-23.9 79.85-23.56L79.85-23.56 79.85-17.65 77.24-17.65 76.85-21.14Q76.31-21.56 75.26-21.92 74.21-22.29 73.04-22.29L73.04-22.29Q70.99-22.29 69.99-21.35 68.99-20.41 68.99-18.95L68.99-18.95Q68.99-17.26 70.2-16.27 71.4-15.28 74.58-13.84L74.58-13.84Q77.19-12.65 78.89-11.17 80.58-9.69 80.58-7.25ZM101.33-23.95L101.33-18.99 99.38-18.99Q98.92-19.56 98.27-19.96 97.62-20.36 96.69-20.36L96.69-20.36Q95.5-20.36 94.24-19.53 92.98-18.7 91.69-17.26L91.69-17.26 91.69-3.2Q91.69-2.15 92.74-2.1L92.74-2.1 96.03-1.95 96.03 0 83.53 0 83.53-1.9 86-2.1Q86.44-2.15 86.75-2.44 87.05-2.73 87.05-3.2L87.05-3.2 87.05-20.56 83.44-20.56 83.44-22.19 89.64-24.1 91.69-24.1 91.69-19.65Q92.42-20.46 93.52-21.66 94.62-22.85 95.86-23.78 97.11-24.71 98.28-24.71L98.28-24.71Q99.06-24.71 99.97-24.46 100.87-24.22 101.33-23.95L101.33-23.95ZM124.65-5.54L124.65-2.49Q122.55-1.2 120.12-0.29 117.69 0.61 115.15 0.61L115.15 0.61Q112.12 0.61 109.47-0.74 106.82-2.1 105.19-4.86 103.55-7.62 103.55-11.79L103.55-11.79Q103.55-15.7 105.07-18.6 106.58-21.51 109.24-23.11 111.9-24.71 115.3-24.71L115.3-24.71Q119.96-24.71 122.3-21.81 124.65-18.92 124.65-14.45L124.65-14.45Q124.65-14.21 124.65-13.81 124.65-13.4 124.6-13.06L124.6-13.06 108.39-13.06Q108.39-11.16 108.79-9.27 109.19-7.37 110.14-5.83 111.1-4.3 112.71-3.37 114.32-2.44 116.74-2.44L116.74-2.44Q118.88-2.44 120.92-3.43 122.96-4.42 124.65-5.54L124.65-5.54ZM108.65-15.31L119.64-15.31 119.64-16.41Q119.64-18.87 118.46-20.56 117.27-22.24 114.78-22.24L114.78-22.24Q112.32-22.24 110.58-20.39 108.85-18.53 108.65-15.31L108.65-15.31ZM150.96-1.95L150.96 0 143.56 0 142.9-2.95Q142.9-2.95 142.16-2.42 141.42-1.88 140.19-1.17 138.97-0.46 137.5 0.07 136.02 0.61 134.56 0.61L134.56 0.61Q131.85 0.61 129.95-1.2 128.06-3 128.06-6.15L128.06-6.15Q128.06-7.54 128.56-8.74 129.06-9.94 130.56-11.02 132.07-12.11 135.03-13.15 138-14.18 142.9-15.26L142.9-15.26 142.9-17.41Q142.9-22.34 138.24-22.34L138.24-22.34Q136.95-22.34 136.01-22.09 135.07-21.85 134.7-21.7L134.7-21.7 134.7-17.36 131.06-17.36Q130.38-17.36 129.79-17.61 129.21-17.87 129.21-18.8L129.21-18.8Q129.21-20.85 130.77-22.16 132.33-23.46 134.74-24.08 137.14-24.71 139.61-24.71L139.61-24.71Q142.71-24.71 144.42-23.74 146.13-22.78 146.81-21.08 147.49-19.38 147.49-17.21L147.49-17.21 147.49-3.2Q147.49-2.73 147.8-2.44 148.11-2.15 148.54-2.1L148.54-2.1 150.96-1.95ZM142.9-4.71L142.9-4.71 142.9-13.35Q139.54-12.52 137.55-11.68 135.56-10.84 134.58-10 133.6-9.16 133.3-8.29 132.99-7.42 132.99-6.49L132.99-6.49Q132.99-4.96 133.98-3.65 134.97-2.34 136.75-2.34L136.75-2.34Q137.75-2.34 138.83-2.7 139.9-3.05 140.83-3.53 141.76-4 142.33-4.36 142.9-4.71 142.9-4.71ZM193.2-1.95L193.2 0 181.99 0 181.99-1.95 184.09-2.1Q185.14-2.17 185.14-3.2L185.14-3.2 185.14-15.94Q185.14-18.26 184.17-19.65 183.21-21.04 180.7-21.04L180.7-21.04Q179.45-21.04 177.97-20.65 176.5-20.26 175.35-19.65L175.35-19.65 175.35-3.2Q175.35-2.17 176.4-2.1L176.4-2.1 178.5-1.95 178.5 0 167.54 0 167.54-1.95 169.64-2.1Q170.69-2.17 170.69-3.2L170.69-3.2 170.69-16.26Q170.69-18.38 169.68-19.71 168.68-21.04 166.29-21.04L166.29-21.04Q164.88-21.04 163.34-20.57 161.8-20.09 160.94-19.6L160.94-19.6 160.94-3.2Q160.94-2.17 161.99-2.1L161.99-2.1 164.09-1.95 164.09 0 152.79 0 152.79-1.95 155.23-2.1Q156.28-2.17 156.28-3.2L156.28-3.2 156.28-20.56 152.84-20.56 152.84-22.19 158.89-24.1 160.94-24.1 160.94-21.61Q162.07-22.29 163.47-23 164.88-23.71 166.34-24.21 167.8-24.71 169.1-24.71L169.1-24.71Q171.27-24.71 172.61-23.6 173.96-22.49 174.59-21.24L174.59-21.24Q175.59-21.88 177.13-22.69 178.67-23.51 180.32-24.11 181.96-24.71 183.28-24.71L183.28-24.71Q185.92-24.71 187.31-23.5 188.7-22.29 189.22-20.52 189.73-18.75 189.73-17.04L189.73-17.04 189.73-3.2Q189.73-2.73 190.03-2.44 190.34-2.15 190.78-2.1L190.78-2.1 193.2-1.95Z" opacity="1" transform="matrix(1,0,0,1,0,0)" fill="#1c1c1c" class="wordmark-text-0" data-fill-palette-color="primary" id="text-0"></path></svg></g></svg></g><g transform="matrix(1,0,0,1,163.310208,91.88542938226298)"><svg viewBox="0 0 232.209792 16.182169143788187" height="16.182169143788187" width="232.209792"><g transform="matrix(1,0,0,1,0,0)"><svg width="232.209792" viewBox="1.46 -38.38 719.18 50.120000000000005" height="16.182169143788187" data-palette-color="#636365"><path d="M19.48-12.45L19.48-1.29Q19.48-0.56 19.18-0.28 18.87 0 18.14 0L18.14 0 12.94 0Q12.21 0 11.9-0.28 11.6-0.56 11.6-1.29L11.6-1.29 11.6-12.3 6.74-17.94Q5-19.97 3.82-21.58 2.64-23.19 2.05-24.91 1.46-26.64 1.46-28.96L1.46-28.96 1.46-31.1Q1.46-31.81 1.71-32.18L1.71-32.18Q2.81-33.79 4.79-35.57L4.79-35.57Q5.15-35.86 5.44-35.86L5.44-35.86Q5.74-35.86 6.05-35.57L6.05-35.57Q7.13-34.64 7.86-33.8 8.59-32.96 9.13-32.18L9.13-32.18Q9.38-31.79 9.38-31.1L9.38-31.1 9.38-28.98Q9.38-27.39 10.3-25.46 11.23-23.54 13.43-21.22L13.43-21.22 15.8-18.73 18.12-21.22Q20.09-23.34 21.13-25.27 22.17-27.2 22.17-28.96L22.17-28.96 22.17-31.1Q22.17-31.81 22.41-32.18L22.41-32.18Q23.46-33.76 25.39-35.57L25.39-35.57Q25.76-35.86 26-35.86L26-35.86Q26.29-35.86 26.61-35.57L26.61-35.57Q27.64-34.64 28.36-33.8 29.08-32.96 29.59-32.18L29.59-32.18Q29.83-31.79 29.83-31.1L29.83-31.1 29.83-28.96Q29.83-26.27 28.66-23.82 27.49-21.36 24.68-18.24L24.68-18.24 19.48-12.45ZM46.58 0.61L46.58 0.61Q40.43 0.61 36.84-2.66 33.25-5.93 33.25-12.4L33.25-12.4Q33.25-19.04 36.97-22.33 40.7-25.61 46.92-25.61L46.92-25.61Q52.93-25.61 56.54-22.38 60.15-19.14 60.15-12.84L60.15-12.84Q60.15-6.27 56.54-2.83 52.93 0.61 46.58 0.61ZM46.82-5.3L46.82-5.3Q49.51-5.3 50.88-6.97 52.24-8.64 52.24-12.7L52.24-12.7Q52.24-16.55 50.86-18.13 49.48-19.7 46.77-19.7L46.77-19.7Q44.16-19.7 42.66-18.01 41.16-16.31 41.16-12.5L41.16-12.5Q41.16-8.52 42.59-6.91 44.02-5.3 46.82-5.3ZM74.12 0.61L74.12 0.61Q65.42 0.61 65.42-9.91L65.42-9.91 65.4-22.31Q65.4-22.9 65.64-23.22L65.64-23.22Q66.67-24.56 68.65-26.12L68.65-26.12Q68.99-26.37 69.26-26.37L69.26-26.37Q69.58-26.37 69.87-26.12L69.87-26.12Q70.92-25.32 71.64-24.61 72.36-23.9 72.87-23.22L72.87-23.22Q73.12-22.9 73.12-22.31L73.12-22.31 73.12-10.6Q73.12-5.3 77.31-5.3L77.31-5.3Q79.39-5.3 80.63-6.75 81.88-8.2 81.88-10.69L81.88-10.69 81.88-22.31Q81.88-22.9 82.12-23.22L82.12-23.22Q83.15-24.56 85.13-26.12L85.13-26.12Q85.47-26.37 85.74-26.37L85.74-26.37Q86.05-26.37 86.35-26.12L86.35-26.12Q87.4-25.32 88.12-24.61 88.84-23.9 89.35-23.22L89.35-23.22Q89.59-22.9 89.59-22.31L89.59-22.31 89.59-1.12Q89.59-0.66 89.28-0.33 88.96 0 88.47 0L88.47 0 84.81 0Q84.42 0 84.11-0.11 83.81-0.22 83.54-0.54L83.54-0.54 82.03-2.49 81.86-2.49Q81.46-1.93 80.65-1.2 79.83-0.46 78.28 0.07 76.73 0.61 74.12 0.61ZM103.9-22.17L103.9-20.36 104-20.36Q105.83-25.44 110.59-25.44L110.59-25.44Q111.2-25.44 111.59-25.38 111.98-25.32 112.13-25.27L112.13-25.27Q112.49-25.15 112.49-24.71L112.49-24.71 112.49-18.82Q112.49-18.07 111.61-18.41L111.61-18.41Q111.32-18.53 110.77-18.66 110.22-18.8 109.25-18.8L109.25-18.8Q106.73-18.8 105.31-16.96 103.9-15.11 103.9-11.94L103.9-11.94 103.9-1.29Q103.9-0.56 103.59-0.28 103.29 0 102.56 0L102.56 0 97.53 0Q96.79 0 96.49-0.28 96.18-0.56 96.18-1.29L96.18-1.29 96.18-21.75Q96.18-22.34 96.43-22.66L96.43-22.66Q96.94-23.34 97.66-24.05 98.38-24.76 99.43-25.56L99.43-25.56Q99.63-25.71 99.82-25.76 100.02-25.81 100.16-25.81L100.16-25.81Q100.51-25.81 100.85-25.56L100.85-25.56Q102.87-23.97 103.68-22.85L103.68-22.85Q103.9-22.56 103.9-22.17L103.9-22.17ZM145.67-28.59L145.67-1.29Q145.67-0.56 145.36-0.28 145.06 0 144.32 0L144.32 0 139.12 0Q138.39 0 138.09-0.28 137.78-0.56 137.78-1.29L137.78-1.29 137.78-28.59 130.51-28.59Q129.92-28.59 129.63-28.78L129.63-28.78Q128.99-29.22 128.32-29.83 127.65-30.44 126.87-31.3L126.87-31.3Q126.62-31.62 126.62-31.81L126.62-31.81Q126.62-32.03 126.87-32.3L126.87-32.3Q127.65-33.15 128.32-33.76 128.99-34.38 129.63-34.81L129.63-34.81Q129.97-35.01 130.51-35.01L130.51-35.01 152.97-35.01Q153.55-35.01 153.84-34.81L153.84-34.81Q154.48-34.38 155.16-33.76 155.85-33.15 156.6-32.3L156.6-32.3Q156.85-31.98 156.85-31.79L156.85-31.79Q156.85-31.57 156.6-31.3L156.6-31.3Q155.85-30.44 155.16-29.83 154.48-29.22 153.84-28.78L153.84-28.78Q153.5-28.59 152.97-28.59L152.97-28.59 145.67-28.59ZM172.4 0.61L172.4 0.61Q168.27 0.61 165.22-0.72 162.17-2.05 160.48-4.86 158.8-7.67 158.8-12.11L158.8-12.11Q158.8-18.77 162.22-22.19 165.63-25.61 171.3-25.61L171.3-25.61Q174.99-25.61 177.54-24.29 180.09-22.97 181.42-20.65 182.75-18.33 182.75-15.36L182.75-15.36Q182.75-12.45 181.26-11.3 179.77-10.16 176.91-10.16L176.91-10.16 166.44-10.16Q166.64-7.64 168.28-6.32 169.93-5 172.76-5L172.76-5Q175.01-5 176.36-5.68 177.72-6.35 178.26-6.74L178.26-6.74Q178.72-7.08 179.31-7.06L179.31-7.06Q179.77-7.06 180.64-6.87 181.5-6.69 182.36-6.2L182.36-6.2Q182.97-5.88 182.97-5.32L182.97-5.32Q182.97-5 182.85-4.42L182.85-4.42Q182.77-4.08 182.6-3.43 182.43-2.78 182.16-2.22L182.16-2.22Q182.02-1.95 181.7-1.71L181.7-1.71Q181.21-1.37 180.12-0.81 179.04-0.24 177.16 0.18 175.28 0.61 172.4 0.61ZM166.39-15.16L166.39-15.16 174.35-15.16Q175.6-15.16 175.6-16.31L175.6-16.31Q175.6-18.04 174.51-19.23 173.42-20.41 171.25-20.41L171.25-20.41Q168.88-20.41 167.77-18.9 166.66-17.38 166.39-15.16ZM200.57-25.61L200.57-25.61Q203.47-25.61 204.79-25.13 206.11-24.66 206.45-24.39L206.45-24.39Q206.99-24.05 207.28-23.51L207.28-23.51Q207.45-23.24 207.67-22.58 207.89-21.92 207.99-21.14L207.99-21.14Q208.11-20.53 208.01-20.28 207.92-20.02 207.4-19.65L207.4-19.65Q206.82-19.26 206.12-18.96 205.43-18.65 204.99-18.53L204.99-18.53Q204.62-18.43 204.43-18.48 204.23-18.53 203.89-18.77L203.89-18.77Q203.5-19.04 202.79-19.37 202.08-19.7 200.84-19.7L200.84-19.7Q199.25-19.7 197.82-18.92 196.39-18.14 195.5-16.58 194.61-15.01 194.61-12.67L194.61-12.67Q194.61-9.16 196.45-7.23 198.3-5.3 201.4-5.3L201.4-5.3Q202.99-5.3 204.04-5.63 205.09-5.96 205.7-6.3L205.7-6.3Q206.18-6.57 206.44-6.43 206.7-6.3 206.84-5.96L206.84-5.96 208.63-1.93Q208.89-1.29 208.33-1.03L208.33-1.03Q207.43-0.56 205.35 0.02 203.28 0.61 200.23 0.61L200.23 0.61Q194.1 0.61 190.44-2.65 186.77-5.91 186.77-12.4L186.77-12.4Q186.77-16.55 188.46-19.51 190.14-22.46 193.24-24.04 196.34-25.61 200.57-25.61ZM220.32-16.46L220.32-1.29Q220.32-0.56 220.01-0.28 219.71 0 218.97 0L218.97 0 213.94 0Q213.21 0 212.91-0.28 212.6-0.56 212.6-1.29L212.6-1.29 212.6-34.33Q212.6-34.91 212.85-35.23L212.85-35.23Q213.87-36.57 215.85-38.13L215.85-38.13Q216.19-38.38 216.46-38.38L216.46-38.38Q216.78-38.38 217.07-38.13L217.07-38.13Q218.12-37.33 218.84-36.62 219.56-35.91 220.07-35.23L220.07-35.23Q220.32-34.91 220.32-34.33L220.32-34.33 220.32-22.49 220.41-22.49Q220.95-23.19 221.81-23.91 222.66-24.63 224.09-25.12 225.52-25.61 227.74-25.61L227.74-25.61Q229.98-25.61 232.06-24.68 234.14-23.75 235.45-21.56 236.77-19.36 236.77-15.55L236.77-15.55 236.77-1.29Q236.77-0.56 236.47-0.28 236.16 0 235.43 0L235.43 0 230.4 0Q229.67 0 229.36-0.28 229.06-0.56 229.06-1.29L229.06-1.29 229.06-14.21Q229.06-16.92 227.93-18.15 226.81-19.38 224.88-19.38L224.88-19.38Q222.98-19.38 221.93-18.55 220.88-17.72 220.32-16.46L220.32-16.46ZM265.65-14.84L265.65-1.29Q265.65-0.56 265.34-0.28 265.04 0 264.31 0L264.31 0 259.11 0Q258.37 0 258.07-0.28 257.76-0.56 257.76-1.29L257.76-1.29 257.76-31.1Q257.76-31.81 258.01-32.18L258.01-32.18Q259.11-33.79 261.08-35.57L261.08-35.57Q261.45-35.86 261.72-35.86L261.72-35.86Q262.01-35.86 262.33-35.57L262.33-35.57Q263.4-34.64 264.14-33.8 264.87-32.96 265.4-32.18L265.4-32.18Q265.65-31.79 265.65-31.1L265.65-31.1 265.65-20.97 266.21-20.97Q269.26-20.97 271.17-21.81 273.07-22.66 274.1-24.08 275.12-25.51 275.5-27.27 275.88-29.03 275.88-30.86L275.88-30.86 275.88-31.1Q275.88-31.81 276.12-32.18L276.12-32.18Q277.22-33.79 279.2-35.57L279.2-35.57Q279.56-35.86 279.83-35.86L279.83-35.86Q280.13-35.86 280.44-35.57L280.44-35.57Q281.52-34.64 282.25-33.8 282.98-32.96 283.52-32.18L283.52-32.18Q283.76-31.79 283.76-31.1L283.76-31.1 283.76-30.86Q283.76-28.88 283.37-26.77 282.98-24.66 281.99-22.78 281.01-20.9 279.21-19.57 277.42-18.24 274.58-17.82L274.58-17.82 274.58-17.65Q277.12-16.85 279.11-14.98 281.1-13.11 282.56-10.72 284.01-8.33 284.94-5.91 285.86-3.49 286.25-1.59L286.25-1.59Q286.45-0.68 286.25-0.34 286.06 0 285.33 0L285.33 0 279.35 0Q278.1 0 277.88-1.15L277.88-1.15Q277.51-3 276.45-5.33 275.39-7.67 273.8-9.84 272.22-12.01 270.28-13.43 268.33-14.84 266.21-14.84L266.21-14.84 265.65-14.84ZM314.91-15.55L314.91-15.55 314.91-1.29Q314.91-0.56 314.61-0.28 314.3 0 313.57 0L313.57 0 308.54 0Q307.81 0 307.5-0.28 307.2-0.56 307.2-1.29L307.2-1.29 307.2-14.28Q307.2-16.94 306.08-18.16 304.95-19.38 303.02-19.38L303.02-19.38Q301.1-19.38 300.06-18.55 299.02-17.72 298.46-16.46L298.46-16.46 298.46-1.29Q298.46-0.56 298.15-0.28 297.85 0 297.12 0L297.12 0 292.09 0Q291.35 0 291.05-0.28 290.74-0.56 290.74-1.29L290.74-1.29 290.74-21.75Q290.74-22.34 290.99-22.66L290.99-22.66Q291.5-23.34 292.22-24.05 292.94-24.76 293.99-25.56L293.99-25.56Q294.31-25.81 294.6-25.81L294.6-25.81Q294.87-25.81 295.21-25.56L295.21-25.56Q296.24-24.76 296.97-24.02 297.7-23.29 298.26-22.51L298.26-22.51 298.39-22.51Q298.8-23.05 299.63-23.77 300.46-24.49 301.96-25.05 303.46-25.61 305.81-25.61L305.81-25.61Q308.1-25.61 310.18-24.68 312.25-23.75 313.58-21.56 314.91-19.36 314.91-15.55ZM333.49 0.61L333.49 0.61Q327.34 0.61 323.75-2.66 320.16-5.93 320.16-12.4L320.16-12.4Q320.16-19.04 323.88-22.33 327.61-25.61 333.83-25.61L333.83-25.61Q339.84-25.61 343.45-22.38 347.06-19.14 347.06-12.84L347.06-12.84Q347.06-6.27 343.45-2.83 339.84 0.61 333.49 0.61ZM333.73-5.3L333.73-5.3Q336.42-5.3 337.79-6.97 339.15-8.64 339.15-12.7L339.15-12.7Q339.15-16.55 337.78-18.13 336.4-19.7 333.69-19.7L333.69-19.7Q331.07-19.7 329.57-18.01 328.07-16.31 328.07-12.5L328.07-12.5Q328.07-8.52 329.5-6.91 330.93-5.3 333.73-5.3ZM356.68-1.78L356.68-1.78Q355.97-2.88 355.17-4.85 354.36-6.81 353.58-9.22 352.8-11.62 352.15-14.03 351.51-16.43 351.11-18.44 350.72-20.46 350.72-21.61L350.72-21.61Q350.72-22.09 350.99-22.41L350.99-22.41Q352.12-23.8 354.19-25.32L354.19-25.32Q354.56-25.56 354.85-25.56L354.85-25.56Q355.17-25.56 355.51-25.32L355.51-25.32Q356.63-24.51 357.4-23.8 358.17-23.1 358.71-22.41L358.71-22.41Q358.98-22.09 358.98-21.51L358.98-21.51 358.98-21.63Q358.98-20.12 359.16-18.14 359.34-16.16 359.68-14.06 360.03-11.96 360.5-10.06 360.98-8.15 361.56-6.79L361.56-6.79 361.71-6.79Q362.35-8.15 363.05-10.35 363.76-12.55 364.41-15 365.06-17.46 365.57-19.63 366.08-21.8 366.3-23.07L366.3-23.07Q366.47-24.02 367.07-24.34 367.67-24.66 368.74-24.66L368.74-24.66 371.57-24.66Q372.79-24.66 373.32-24.29 373.84-23.93 373.97-23.07L373.97-23.07Q374.16-21.75 374.67-19.52 375.19-17.29 375.83-14.79 376.48-12.3 377.14-10.13 377.8-7.96 378.26-6.79L378.26-6.79 378.43-6.79Q379.17-8.4 379.83-10.95 380.49-13.5 380.9-16.33 381.32-19.17 381.32-21.61L381.32-21.61 381.32-21.51Q381.32-22.09 381.56-22.41L381.56-22.41Q382.12-23.1 382.88-23.8 383.63-24.51 384.71-25.32L384.71-25.32Q385.05-25.56 385.34-25.56L385.34-25.56Q385.69-25.56 385.98-25.32L385.98-25.32Q387.08-24.51 387.83-23.8 388.59-23.1 389.13-22.41L389.13-22.41Q389.37-22.09 389.37-21.56L389.37-21.56Q389.35-20.36 388.91-18.37 388.47-16.38 387.75-14.01 387.03-11.65 386.16-9.28 385.29-6.91 384.4-4.93 383.51-2.95 382.76-1.78L382.76-1.78Q382.27-1.03 381.9-0.63 381.53-0.24 381.01-0.12 380.49 0 379.46 0L379.46 0 376.7 0Q375.55 0 374.91-0.33 374.26-0.66 373.7-1.78L373.7-1.78Q373.36-2.44 372.87-3.99 372.38-5.54 371.87-7.39 371.35-9.23 370.96-10.84 370.57-12.45 370.45-13.21L370.45-13.21Q370.33-13.94 370.19-14.99 370.06-16.04 370.01-16.65L370.01-16.65 369.89-16.65Q369.86-16.04 369.73-15 369.6-13.96 369.45-13.18L369.45-13.18Q369.3-12.5 368.91-11.07 368.52-9.64 367.97-7.92 367.42-6.2 366.83-4.57 366.23-2.93 365.69-1.78L365.69-1.78Q365.15-0.66 364.46-0.33 363.76 0 362.25 0L362.25 0 359.42 0Q358.22 0 357.79-0.37 357.36-0.73 356.68-1.78ZM350.72-21.51L350.72-21.66 350.72-21.61Q350.72-21.56 350.72-21.51L350.72-21.51ZM389.37-21.61L389.37-21.61 389.37-21.51 389.37-21.56Q389.37-21.58 389.37-21.61ZM402.67-1.83L397.57 0.51Q397.06 0.73 396.84 0.73L396.84 0.73Q396.62 0.73 396.38 0.56L396.38 0.56Q395.81 0.17 395.09-1.35 394.37-2.88 394.37-6.05L394.37-6.05 394.37-34.33Q394.37-34.91 394.62-35.23L394.62-35.23Q395.64-36.57 397.62-38.13L397.62-38.13Q397.96-38.38 398.23-38.38L398.23-38.38Q398.55-38.38 398.84-38.13L398.84-38.13Q399.89-37.33 400.61-36.62 401.33-35.91 401.84-35.23L401.84-35.23Q402.09-34.91 402.09-34.33L402.09-34.33 402.09-7.54Q402.09-5.93 402.36-4.8 402.63-3.66 402.99-2.98L402.99-2.98Q403.41-2.17 402.67-1.83L402.67-1.83ZM421.03 0.61L421.03 0.61Q416.91 0.61 413.85-0.72 410.8-2.05 409.12-4.86 407.43-7.67 407.43-12.11L407.43-12.11Q407.43-18.77 410.85-22.19 414.27-25.61 419.93-25.61L419.93-25.61Q423.62-25.61 426.17-24.29 428.72-22.97 430.05-20.65 431.38-18.33 431.38-15.36L431.38-15.36Q431.38-12.45 429.89-11.3 428.4-10.16 425.55-10.16L425.55-10.16 415.07-10.16Q415.27-7.64 416.92-6.32 418.57-5 421.4-5L421.4-5Q423.64-5 425-5.68 426.35-6.35 426.89-6.74L426.89-6.74Q427.36-7.08 427.94-7.06L427.94-7.06Q428.4-7.06 429.27-6.87 430.14-6.69 430.99-6.2L430.99-6.2Q431.6-5.88 431.6-5.32L431.6-5.32Q431.6-5 431.48-4.42L431.48-4.42Q431.41-4.08 431.24-3.43 431.07-2.78 430.8-2.22L430.8-2.22Q430.65-1.95 430.33-1.71L430.33-1.71Q429.85-1.37 428.76-0.81 427.67-0.24 425.79 0.18 423.91 0.61 421.03 0.61ZM415.03-15.16L415.03-15.16 422.98-15.16Q424.23-15.16 424.23-16.31L424.23-16.31Q424.23-18.04 423.14-19.23 422.06-20.41 419.88-20.41L419.88-20.41Q417.52-20.41 416.41-18.9 415.29-17.38 415.03-15.16ZM445.59 0.61L445.59 0.61Q442.34 0.61 440.06-0.99 437.78-2.59 436.59-5.41 435.41-8.23 435.41-11.91L435.41-11.91Q435.41-16.77 437.13-19.79 438.85-22.8 441.99-24.22 445.13-25.63 449.4-25.63L449.4-25.63Q450.86-25.63 451.83-25.49 452.79-25.34 453.21-25.22L453.21-25.22 453.21-34.33Q453.21-34.91 453.45-35.23L453.45-35.23Q454.48-36.57 456.45-38.13L456.45-38.13Q456.8-38.38 457.06-38.38L457.06-38.38Q457.38-38.38 457.67-38.13L457.67-38.13Q458.72-37.33 459.44-36.62 460.17-35.91 460.68-35.23L460.68-35.23Q460.92-34.91 460.92-34.33L460.92-34.33 460.92-1.12Q460.92-0.66 460.6-0.33 460.29 0 459.8 0L459.8 0 456.16 0Q455.77 0 455.47-0.11 455.16-0.22 454.89-0.54L454.89-0.54 453.38-2.49 453.21-2.49Q452.89-2 452.07-1.26 451.25-0.51 449.7 0.05 448.15 0.61 445.59 0.61ZM447.96-5.64L447.96-5.64Q450.16-5.64 451.41-6.47 452.67-7.3 453.21-8.57L453.21-8.57 453.21-18.8Q452.82-19.04 451.91-19.38 451.01-19.73 449.37-19.73L449.37-19.73Q446.35-19.73 444.83-17.75 443.32-15.77 443.32-12.43L443.32-12.43Q443.32-8.96 444.59-7.3 445.86-5.64 447.96-5.64ZM491.68-22.66L491.68-22.66 491.68-2.86Q491.68 4.27 487.62 8.01 483.55 11.74 476.47 11.74L476.47 11.74Q473.54 11.74 471.83 11.32 470.12 10.89 469.24 10.5L469.24 10.5Q468.68 10.23 468.51 9.94L468.51 9.94Q468.27 9.55 467.96 8.79 467.66 8.03 467.39 7.13L467.39 7.13Q467.32 6.79 467.36 6.62L467.36 6.62Q467.46 6.37 467.73 6.1L467.73 6.1Q468.17 5.66 468.99 5.08 469.81 4.49 470.25 4.32L470.25 4.32Q470.71 4.15 471.1 4.37L471.1 4.37Q471.73 4.71 472.92 5.14 474.1 5.57 476.25 5.57L476.25 5.57Q479.67 5.57 481.82 3.81 483.97 2.05 483.97-1.61L483.97-1.61 483.97-2.49 483.87-2.49Q483.33-1.81 482.48-1.1 481.62-0.39 480.27 0.1 478.91 0.59 476.79 0.59L476.79 0.59Q473.1 0.59 470.75-1.01 468.39-2.61 467.28-5.42 466.17-8.23 466.17-11.82L466.17-11.82Q466.17-15.75 467.46-18.87 468.76-22 471.81-23.82 474.86-25.63 480.16-25.63L480.16-25.63Q483.33-25.63 485.49-25.17 487.65-24.71 489.12-24.02 490.58-23.34 491.68-22.66ZM479.89-19.73L479.89-19.73Q477.06-19.73 475.57-17.82 474.08-15.92 474.08-11.91L474.08-11.91Q474.08-5.64 479.25-5.64L479.25-5.64Q481.28-5.64 482.35-6.47 483.43-7.3 483.97-8.57L483.97-8.57 483.97-18.65Q483.43-19.04 482.45-19.38 481.48-19.73 479.89-19.73ZM510.53 0.61L510.53 0.61Q506.4 0.61 503.35-0.72 500.3-2.05 498.61-4.86 496.93-7.67 496.93-12.11L496.93-12.11Q496.93-18.77 500.35-22.19 503.76-25.61 509.43-25.61L509.43-25.61Q513.11-25.61 515.67-24.29 518.22-22.97 519.55-20.65 520.88-18.33 520.88-15.36L520.88-15.36Q520.88-12.45 519.39-11.3 517.9-10.16 515.04-10.16L515.04-10.16 504.57-10.16Q504.76-7.64 506.41-6.32 508.06-5 510.89-5L510.89-5Q513.14-5 514.49-5.68 515.85-6.35 516.39-6.74L516.39-6.74Q516.85-7.08 517.44-7.06L517.44-7.06Q517.9-7.06 518.77-6.87 519.63-6.69 520.49-6.2L520.49-6.2Q521.1-5.88 521.1-5.32L521.1-5.32Q521.1-5 520.98-4.42L520.98-4.42Q520.9-4.08 520.73-3.43 520.56-2.78 520.29-2.22L520.29-2.22Q520.15-1.95 519.83-1.71L519.83-1.71Q519.34-1.37 518.25-0.81 517.17-0.24 515.29 0.18 513.41 0.61 510.53 0.61ZM504.52-15.16L504.52-15.16 512.48-15.16Q513.72-15.16 513.72-16.31L513.72-16.31Q513.72-18.04 512.64-19.23 511.55-20.41 509.38-20.41L509.38-20.41Q507.01-20.41 505.9-18.9 504.79-17.38 504.52-15.16ZM550.12 0.59L550.12 0.59Q547.02 0.59 544.98 0.02 542.94-0.54 541.71-1.38 540.48-2.22 539.82-3.05L539.82-3.05Q539.6-3.37 539.43-3.66 539.26-3.96 539.18-4.32L539.18-4.32Q539.09-4.81 538.99-5.6 538.89-6.4 538.96-7.45L538.96-7.45Q538.99-7.89 539.13-8.06L539.13-8.06Q539.31-8.25 539.7-8.35L539.7-8.35Q540.4-8.52 541.54-8.65 542.67-8.79 543.16-8.79L543.16-8.79Q543.68-8.79 543.99-8.59 544.31-8.4 544.75-7.93L544.75-7.93Q545.24-7.42 546.43-6.63 547.63-5.83 550.12-5.83L550.12-5.83Q552.51-5.83 553.73-6.84 554.95-7.84 554.95-9.62L554.95-9.62Q554.95-10.57 554.38-11.41 553.81-12.26 552.29-13.1 550.78-13.94 547.97-14.87L547.97-14.87Q543.33-16.43 541.28-18.75 539.23-21.07 539.23-25.2L539.23-25.2Q539.23-28.61 540.89-30.91 542.55-33.2 545.48-34.38 548.41-35.55 552.24-35.55L552.24-35.55Q555.2-35.55 557.14-34.85 559.08-34.16 560.16-33.29 561.23-32.42 561.55-31.88L561.55-31.88Q561.74-31.57 561.8-31.41 561.86-31.25 561.89-30.98L561.89-30.98Q561.96-30.22 561.94-29.3 561.91-28.37 561.77-27.2L561.77-27.2Q561.69-26.81 561.5-26.66L561.5-26.66Q561.33-26.54 560.96-26.54L560.96-26.54Q558.59-26.49 557.3-26.78L557.3-26.78Q556.79-26.9 556.62-27.03 556.44-27.15 556.18-27.42L556.18-27.42Q555.78-27.88 554.94-28.5 554.1-29.13 552.24-29.13L552.24-29.13Q549.68-29.13 548.61-27.97 547.53-26.81 547.53-25.37L547.53-25.37Q547.53-23.66 549.12-22.69 550.71-21.73 554.12-20.51L554.12-20.51Q556.98-19.51 559.03-18.33 561.08-17.16 562.17-15.33 563.26-13.5 563.26-10.5L563.26-10.5Q563.26-6.76 561.53-4.3 559.81-1.83 556.85-0.62 553.88 0.59 550.12 0.59ZM578.63 0.61L578.63 0.61Q570.48 0.61 570.48-7.86L570.48-7.86 570.48-19.31 567.72-19.31Q566.99-19.31 566.71-19.62 566.43-19.92 566.43-20.65L566.43-20.65 566.43-23.66Q566.43-24.39 566.71-24.69 566.99-25 567.72-25L567.72-25 570.48-25 570.48-28.93Q570.48-29.52 570.72-29.83L570.72-29.83Q571.75-31.18 573.73-32.74L573.73-32.74Q574.07-32.98 574.34-32.98L574.34-32.98Q574.63-32.98 574.92-32.74L574.92-32.74Q575.97-31.93 576.69-31.23 577.41-30.52 577.93-29.83L577.93-29.83Q578.17-29.52 578.17-28.93L578.17-28.93 578.17-25 582.49-25Q583.22-25 583.5-24.69 583.79-24.39 583.79-23.66L583.79-23.66 583.79-20.65Q583.79-19.92 583.5-19.62 583.22-19.31 582.49-19.31L582.49-19.31 578.17-19.31 578.17-9.2Q578.17-5.3 581-5.3L581-5.3Q581.44-5.3 581.81-5.38 582.17-5.47 582.44-5.57L582.44-5.57Q582.96-5.76 583.16-5.71 583.37-5.66 583.54-5.18L583.54-5.18 584.96-1.39Q585.18-0.78 584.66-0.51L584.66-0.51Q584.3-0.34 582.89 0.13 581.49 0.61 578.63 0.61ZM596.75-22.17L596.75-20.36 596.84-20.36Q598.68-25.44 603.44-25.44L603.44-25.44Q604.05-25.44 604.44-25.38 604.83-25.32 604.97-25.27L604.97-25.27Q605.34-25.15 605.34-24.71L605.34-24.71 605.34-18.82Q605.34-18.07 604.46-18.41L604.46-18.41Q604.17-18.53 603.62-18.66 603.07-18.8 602.09-18.8L602.09-18.8Q599.58-18.8 598.16-16.96 596.75-15.11 596.75-11.94L596.75-11.94 596.75-1.29Q596.75-0.56 596.44-0.28 596.14 0 595.4 0L595.4 0 590.37 0Q589.64 0 589.34-0.28 589.03-0.56 589.03-1.29L589.03-1.29 589.03-21.75Q589.03-22.34 589.28-22.66L589.28-22.66Q589.79-23.34 590.51-24.05 591.23-24.76 592.28-25.56L592.28-25.56Q592.47-25.71 592.67-25.76 592.86-25.81 593.01-25.81L593.01-25.81Q593.35-25.81 593.69-25.56L593.69-25.56Q595.72-23.97 596.53-22.85L596.53-22.85Q596.75-22.56 596.75-22.17L596.75-22.17ZM621.23 0.61L621.23 0.61Q617.11 0.61 614.05-0.72 611-2.05 609.32-4.86 607.63-7.67 607.63-12.11L607.63-12.11Q607.63-18.77 611.05-22.19 614.47-25.61 620.13-25.61L620.13-25.61Q623.82-25.61 626.37-24.29 628.92-22.97 630.25-20.65 631.58-18.33 631.58-15.36L631.58-15.36Q631.58-12.45 630.09-11.3 628.6-10.16 625.75-10.16L625.75-10.16 615.27-10.16Q615.47-7.64 617.12-6.32 618.77-5 621.6-5L621.6-5Q623.84-5 625.2-5.68 626.55-6.35 627.09-6.74L627.09-6.74Q627.55-7.08 628.14-7.06L628.14-7.06Q628.6-7.06 629.47-6.87 630.34-6.69 631.19-6.2L631.19-6.2Q631.8-5.88 631.8-5.32L631.8-5.32Q631.8-5 631.68-4.42L631.68-4.42Q631.61-4.08 631.44-3.43 631.27-2.78 631-2.22L631-2.22Q630.85-1.95 630.53-1.71L630.53-1.71Q630.05-1.37 628.96-0.81 627.87-0.24 625.99 0.18 624.11 0.61 621.23 0.61ZM615.23-15.16L615.23-15.16 623.18-15.16Q624.43-15.16 624.43-16.31L624.43-16.31Q624.43-18.04 623.34-19.23 622.26-20.41 620.08-20.41L620.08-20.41Q617.72-20.41 616.61-18.9 615.49-17.38 615.23-15.16ZM643.42 0.61L643.42 0.61Q639.83 0.61 637.72-1.4 635.61-3.42 635.61-6.96L635.61-6.96Q635.61-8.79 636.28-10.36 636.95-11.94 638.62-13.15 640.3-14.36 643.31-15.09 646.33-15.82 651.01-15.94L651.01-15.94Q651.01-18.16 649.9-19.14 648.79-20.12 646.57-20.12L646.57-20.12Q644.57-20.12 643.3-19.43 642.03-18.75 641.71-18.51L641.71-18.51Q641.37-18.21 640.88-18.29L640.88-18.29Q640.22-18.38 639.48-18.63 638.73-18.87 637.88-19.19L637.88-19.19Q637.76-19.24 637.61-19.35 637.46-19.46 637.44-19.68L637.44-19.68Q637.44-19.8 637.46-19.98 637.49-20.17 637.59-20.65L637.59-20.65Q637.68-21.14 637.88-21.86 638.07-22.58 638.25-22.97L638.25-22.97Q638.47-23.39 638.98-23.75L638.98-23.75Q639.39-24.1 641.49-24.85 643.59-25.61 647.57-25.61L647.57-25.61Q658.53-25.61 658.53-14.94L658.53-14.94 658.53-1.12Q658.53-0.66 658.28-0.33 658.02 0 657.41 0L657.41 0 653.75 0Q653.36 0 653.05-0.11 652.75-0.22 652.48-0.54L652.48-0.54 650.97-2.49 650.79-2.49Q649.67-0.85 647.78-0.12 645.89 0.61 643.42 0.61ZM646.11-5.05L646.11-5.05Q648.35-5.05 649.5-6.2 650.65-7.35 650.97-8.57L650.97-8.57 650.97-11.28Q647.57-11.28 645.88-10.75 644.18-10.23 643.62-9.39 643.06-8.54 643.06-7.57L643.06-7.57Q643.06-6.15 643.93-5.6 644.81-5.05 646.11-5.05ZM687.49-22.44L687.49-22.44Q688.39-23.54 690.28-24.57 692.17-25.61 695.62-25.61L695.62-25.61Q700.5-25.61 702.67-23.1 704.84-20.58 704.84-15.55L704.84-15.55 704.84-1.29Q704.84-0.56 704.54-0.28 704.23 0 703.5 0L703.5 0 698.47 0Q697.74 0 697.44-0.28 697.13-0.56 697.13-1.29L697.13-1.29 697.13-14.28Q697.13-17.02 696.13-18.2 695.13-19.38 693.13-19.38L693.13-19.38Q691.34-19.38 690.31-18.59 689.27-17.8 688.83-16.46L688.83-16.46 688.83-1.29Q688.83-0.56 688.52-0.28 688.22 0 687.49 0L687.49 0 682.46 0Q681.72 0 681.42-0.28 681.11-0.56 681.11-1.29L681.11-1.29 681.11-14.28Q681.11-16.94 680.02-18.16 678.92-19.38 677.13-19.38L677.13-19.38Q675.45-19.38 674.42-18.55 673.4-17.72 672.84-16.46L672.84-16.46 672.84-1.29Q672.84-0.56 672.53-0.28 672.23 0 671.5 0L671.5 0 666.47 0Q665.73 0 665.43-0.28 665.12-0.56 665.12-1.29L665.12-1.29 665.12-21.75Q665.12-22.34 665.37-22.66L665.37-22.66Q665.88-23.34 666.6-24.05 667.32-24.76 668.37-25.56L668.37-25.56Q668.69-25.81 668.98-25.81L668.98-25.81Q669.25-25.81 669.59-25.56L669.59-25.56Q670.62-24.76 671.35-24.02 672.08-23.29 672.64-22.51L672.64-22.51 672.76-22.51Q673.59-23.56 675.35-24.58 677.11-25.61 680.38-25.61L680.38-25.61Q683.51-25.61 685.02-24.67 686.53-23.73 687.49-22.44ZM709.73-4.42L709.73-4.42Q709.73-4.76 709.94-5.02 710.16-5.27 710.51-5.71L710.51-5.71Q711.26-6.57 712.25-7.51 713.24-8.45 714.24-9.33L714.24-9.33Q714.88-9.84 715.19-9.84L715.19-9.84Q715.49-9.84 716.17-9.33L716.17-9.33Q718.29-7.52 719.86-5.71L719.86-5.71Q720.2-5.3 720.42-5.03 720.64-4.76 720.64-4.42L720.64-4.42Q720.64-4.08 720.41-3.81 720.17-3.54 719.83-3.08L719.83-3.08Q719.1-2.25 718.14-1.32 717.17-0.39 716.17 0.49L716.17 0.49Q715.54 1 715.19 1L715.19 1Q714.9 1 714.19 0.49L714.19 0.49Q713.12-0.39 712.19-1.33 711.26-2.27 710.51-3.15L710.51-3.15Q710.16-3.56 709.94-3.82 709.73-4.08 709.73-4.42Z" opacity="1" transform="matrix(1,0,0,1,0,0)" fill="#636365" class="slogan-text-1" data-fill-palette-color="secondary" id="text-1"></path></svg></g></svg></g></svg></g></svg></g><g></g></svg></g><defs></defs></svg><rect width="395.52" height="108.06759852605117" fill="none" stroke="none" visibility="hidden"></rect></g></svg></g></svg>